<svg width="306" height="240" viewBox="0 0 306 240" fill="none" xmlns="http://www.w3.org/2000/svg">
<rect width="306" height="240" fill="#D96930"/>
<path d="M152.743 84.2149C163.046 84.2149 171.399 75.4989 171.399 64.7471C171.399 53.9953 163.046 45.2793 152.743 45.2793C142.439 45.2793 134.086 53.9953 134.086 64.7471C134.086 75.4989 142.439 84.2149 152.743 84.2149Z" fill="white"/>
<path d="M76.0003 82.1869C76.0003 82.1869 132.965 110.811 142.844 100.411C152.657 92.2793 159.744 96.6749 163.766 98.6529C166.665 100.077 169.939 101.783 179.702 95.5936C192.805 87.2859 228.649 35.2066 229.297 25C229.903 37.5802 207.636 112.728 195.164 121.422C189.207 126.556 178.206 128.754 165.602 120.024C157.866 115.514 150.006 120.139 148.577 120.904C144.107 123.893 132.184 131.752 120.701 123.646C109.036 116.068 75.884 81.932 76.0003 82.1869Z" fill="white"/>
<path d="M107.424 214C107.424 214 135.38 138.952 146.448 136.44C157.515 133.928 194.879 132.049 197.013 142.947C199.146 153.845 195.252 171.049 150.408 191.396C164.913 174.14 174.279 160.572 170.584 157.086C166.889 153.599 154.892 153.178 146.846 164.058C138.801 174.939 107.424 214 107.424 214Z" fill="white"/>
</svg>
